<?xml version="1.0" standalone="no"?>
<!DOCTYPE svg PUBLIC "-//W3C//DTD SVG 20010904//EN"
 "http://www.w3.org/TR/2001/REC-SVG-20010904/DTD/svg10.dtd">
<svg version="1.0" xmlns="http://www.w3.org/2000/svg"
 width="256.000000pt" height="256.000000pt" viewBox="0 0 256.000000 256.000000"
 preserveAspectRatio="xMidYMid meet">
<metadata>
Created by potrace 1.14, written by Peter Selinger 2001-2017
</metadata>
<g transform="translate(0.000000,256.000000) scale(0.100000,-0.100000)"
fill="#000000" stroke="none">
<path d="M355 2550 c-92 -5 -106 -8 -155 -38 -30 -19 -70 -53 -87 -76 -66 -87
-64 -43 -62 -970 1 -825 1 -842 21 -896 26 -67 99 -141 165 -167 45 -17 89
-18 663 -18 l615 0 42 23 c69 36 111 80 143 148 l31 63 -3 858 -3 858 -24 48
c-34 65 -85 115 -150 145 l-54 25 -521 1 c-287 1 -566 -1 -621 -4z m1113 -202
c64 -20 62 18 62 -886 0 -804 -1 -820 -20 -845 -11 -14 -35 -29 -52 -33 -55
-12 -1134 -7 -1157 6 -12 6 -28 25 -38 43 -15 29 -16 97 -17 712 -1 374 1 742
4 817 5 126 7 138 29 162 13 14 33 26 45 28 58 9 1114 5 1144 -4z"/>
<path d="M1239 2233 c-14 -37 -81 -245 -83 -258 0 -5 13 -10 29 -10 24 0 33 6
44 31 12 28 18 32 57 32 40 1 43 -1 54 -32 10 -30 15 -34 45 -33 19 1 35 3 35
5 0 18 -95 279 -103 284 -7 4 -24 8 -40 8 -21 0 -30 -7 -38 -27z m65 -116 c5
-20 2 -29 -9 -34 -28 -10 -38 11 -25 53 13 39 21 35 34 -19z"/>
<path d="M860 1933 c-142 -95 -339 -310 -384 -417 -45 -109 -3 -236 94 -286
77 -39 150 -33 233 20 26 16 47 25 47 19 0 -5 -20 -70 -45 -143 -25 -74 -45
-136 -45 -139 0 -7 238 -7 256 0 10 3 8 15 -6 49 -23 53 -80 221 -80 235 0 6
19 -3 43 -20 73 -52 160 -60 236 -22 50 26 85 72 104 136 40 139 -82 322 -361
543 -30 23 -57 42 -61 42 -3 0 -18 -8 -31 -17z"/>
<path d="M573 969 c-11 -4 -23 -19 -27 -33 -6 -23 -11 -26 -52 -26 -41 0 -46
3 -55 30 -9 26 -16 30 -46 30 -24 0 -34 -4 -31 -12 3 -7 24 -73 48 -145 l43
-133 41 0 41 0 44 133 c24 72 46 137 48 143 5 15 -27 23 -54 13z m-54 -131 c0
-7 -6 -29 -13 -48 l-13 -34 -11 33 c-18 50 -15 61 13 61 14 0 25 -6 24 -12z"/>
<path d="M1830 2130 l0 -99 38 -10 c35 -9 91 -24 212 -57 176 -47 202 -57 220
-87 23 -37 21 -49 -51 -324 -33 -126 -61 -235 -63 -243 -15 -59 -221 -831
-256 -957 -37 -134 -59 -158 -129 -149 -25 3 -113 23 -196 44 -145 36 -155 37
-305 35 -85 -1 -245 -2 -354 -3 -110 0 -197 -2 -195 -4 5 -5 58 -20 364 -101
110 -29 207 -56 215 -59 8 -3 26 -8 40 -10 14 -3 106 -26 205 -52 213 -55 295
-61 362 -26 59 31 111 78 133 122 24 47 130 433 371 1349 88 335 90 391 18
497 -51 76 -105 101 -339 162 -63 17 -149 40 -190 51 -41 12 -80 21 -87 21
-10 0 -13 -26 -13 -100z"/>
<path d="M2029 1856 c-8 -6 -18 -18 -22 -26 -4 -8 -36 -60 -71 -115 -45 -69
-61 -102 -53 -107 23 -15 56 -8 74 17 17 23 21 24 61 14 39 -11 42 -14 42 -45
0 -25 5 -34 23 -40 49 -17 48 -20 42 109 -8 153 -10 176 -21 187 -15 15 -59
19 -75 6z m27 -113 c-1 -42 -4 -48 -23 -51 -13 -2 -23 2 -23 8 0 12 38 90 44
90 2 0 3 -21 2 -47z"/>
</g>
</svg>
